<svg width="68" height="66" viewBox="0 0 68 66" fill="none" xmlns="http://www.w3.org/2000/svg">
<g clip-path="url(#clip0_104_282)">
<mask id="path-1-inside-1_104_282" fill="white">
<path d="M36 26.5859L40.4141 31H68V35H40.4141L36 39.4141V66H32V39.4141L27.5859 35H0V31H27.5859L32 26.5859V0H36V26.5859ZM31 33L34.043 36.043L37.0859 33L34.043 29.957L31 33Z"/>
</mask>
<path d="M36 26.5859L40.4141 31H68V35H40.4141L36 39.4141V66H32V39.4141L27.5859 35H0V31H27.5859L32 26.5859V0H36V26.5859ZM31 33L34.043 36.043L37.0859 33L34.043 29.957L31 33Z" fill="#FFBB00"/>
<path d="M36 26.5859H35V27.0002L35.2929 27.293L36 26.5859ZM40.4141 31L39.707 31.7071L39.9998 32H40.4141V31ZM68 31H69V30H68V31ZM68 35V36H69V35H68ZM40.4141 35V34H39.9998L39.707 34.2929L40.4141 35ZM36 39.4141L35.2929 38.707L35 38.9998V39.4141H36ZM36 66V67H37V66H36ZM32 66H31V67H32V66ZM32 39.4141H33V38.9998L32.7071 38.707L32 39.4141ZM27.5859 35L28.293 34.2929L28.0002 34H27.5859V35ZM0 35H-1V36H0V35ZM0 31V30H-1V31H0ZM27.5859 31V32H28.0002L28.293 31.7071L27.5859 31ZM32 26.5859L32.7071 27.293L33 27.0002V26.5859H32ZM32 0V-1H31V0H32ZM36 0H37V-1H36V0ZM31 33L30.2929 32.2929L29.5858 33L30.2929 33.7071L31 33ZM34.043 36.043L33.3359 36.7501L34.043 37.4572L34.7501 36.7501L34.043 36.043ZM37.0859 33L37.793 33.7071L38.5002 33L37.793 32.2929L37.0859 33ZM34.043 29.957L34.7501 29.2499L34.043 28.5428L33.3359 29.2499L34.043 29.957ZM36 26.5859L35.2929 27.293L39.707 31.7071L40.4141 31L41.1212 30.2929L36.7071 25.8788L36 26.5859ZM40.4141 31V32H68V31V30H40.4141V31ZM68 31H67V35H68H69V31H68ZM68 35V34H40.4141V35V36H68V35ZM40.4141 35L39.707 34.2929L35.2929 38.707L36 39.4141L36.7071 40.1212L41.1212 35.7071L40.4141 35ZM36 39.4141H35V66H36H37V39.4141H36ZM36 66V65H32V66V67H36V66ZM32 66H33V39.4141H32H31V66H32ZM32 39.4141L32.7071 38.707L28.293 34.2929L27.5859 35L26.8788 35.7071L31.2929 40.1212L32 39.4141ZM27.5859 35V34H0V35V36H27.5859V35ZM0 35H1V31H0H-1V35H0ZM0 31V32H27.5859V31V30H0V31ZM27.5859 31L28.293 31.7071L32.7071 27.293L32 26.5859L31.2929 25.8788L26.8788 30.2929L27.5859 31ZM32 26.5859H33V0H32H31V26.5859H32ZM32 0V1H36V0V-1H32V0ZM36 0H35V26.5859H36H37V0H36ZM31 33L30.2929 33.7071L33.3359 36.7501L34.043 36.043L34.7501 35.3359L31.7071 32.2929L31 33ZM34.043 36.043L34.7501 36.7501L37.793 33.7071L37.0859 33L36.3788 32.2929L33.3359 35.3359L34.043 36.043ZM37.0859 33L37.793 32.2929L34.7501 29.2499L34.043 29.957L33.3359 30.6641L36.3788 33.7071L37.0859 33ZM34.043 29.957L33.3359 29.2499L30.2929 32.2929L31 33L31.7071 33.7071L34.7501 30.6641L34.043 29.957Z" fill="black" mask="url(#path-1-inside-1_104_282)"/>
<path d="M9 25C10 13.5 16 10 25 10" stroke="black" stroke-width="4" stroke-linecap="square"/>
<path d="M9 41C10 52.5 16 56 25 56" stroke="black" stroke-width="4" stroke-linecap="square"/>
<path d="M59 25C58 13.5 52 10 43 10" stroke="black" stroke-width="4" stroke-linecap="square"/>
<path d="M59 41C58 52.5 52 56 43 56" stroke="black" stroke-width="4" stroke-linecap="square"/>
<path d="M9 25C10 13.5 16 10 25 10" stroke="#FFBB00" stroke-width="2" stroke-linecap="square"/>
<path d="M9 41C10 52.5 16 56 25 56" stroke="#FFBB00" stroke-width="2" stroke-linecap="square"/>
<path d="M59 25C58 13.5 52 10 43 10" stroke="#FFBB00" stroke-width="2" stroke-linecap="square"/>
<path d="M59 41C58 52.5 52 56 43 56" stroke="#FFBB00" stroke-width="2" stroke-linecap="square"/>
</g>
<defs>
<clipPath id="clip0_104_282">
<rect width="68" height="66" fill="white"/>
</clipPath>
</defs>
</svg>
